<svg xmlns="http://www.w3.org/2000/svg" width="200" height="200" viewBox="0 0 200 200">
  <defs>
    <style>
      .cls-1 {
        fill: #37444a;
      }

      .cls-1, .cls-2 {
        opacity: 0.3;
      }

      .cls-2 {
        fill: #231815;
      }
    </style>
  </defs>
  <g id="组_159" data-name="组 159" transform="translate(-275 -421)">
    <circle id="椭圆_11" data-name="椭圆 11" class="cls-1" cx="50" cy="50" r="50" transform="translate(325 471)"/>
    <path id="联合_1" data-name="联合 1" class="cls-2" d="M-2360,200a100.118,100.118,0,0,1-100-100A100.118,100.118,0,0,1-2360,0a100.118,100.118,0,0,1,100,100,100.155,100.155,0,0,1-59.238,91.309h54.883a4.343,4.343,0,0,1,4.355,4.336,4.359,4.359,0,0,1-4.355,4.356Zm-91.309-100A91.407,91.407,0,0,0-2360,191.309,91.407,91.407,0,0,0-2268.691,100,91.407,91.407,0,0,0-2360,8.691,91.407,91.407,0,0,0-2451.308,100Zm65.215,52.168A26.115,26.115,0,0,1-2360,126.074a26.128,26.128,0,0,1,26.094,26.094A26.128,26.128,0,0,1-2360,178.262,26.128,26.128,0,0,1-2386.094,152.168Zm8.711,0A17.4,17.4,0,0,0-2360,169.551a17.4,17.4,0,0,0,17.383-17.383A17.4,17.4,0,0,0-2360,134.785,17.4,17.4,0,0,0-2377.382,152.168ZM-2333.906,100a26.111,26.111,0,0,1,26.074-26.094A26.115,26.115,0,0,1-2281.738,100a26.128,26.128,0,0,1-26.094,26.094A26.123,26.123,0,0,1-2333.906,100Zm8.691,0a17.4,17.4,0,0,0,17.383,17.383A17.4,17.4,0,0,0-2290.449,100a17.4,17.4,0,0,0-17.383-17.383A17.4,17.4,0,0,0-2325.215,100Zm-113.047,0a26.128,26.128,0,0,1,26.094-26.094A26.123,26.123,0,0,1-2386.094,100a26.111,26.111,0,0,1-26.074,26.094A26.115,26.115,0,0,1-2438.262,100Zm8.711,0a17.4,17.4,0,0,0,17.383,17.383A17.4,17.4,0,0,0-2394.785,100a17.4,17.4,0,0,0-17.383-17.383A17.4,17.4,0,0,0-2429.551,100Zm43.457-52.168A26.128,26.128,0,0,1-2360,21.738a26.111,26.111,0,0,1,26.094,26.074A26.128,26.128,0,0,1-2360,73.906,26.111,26.111,0,0,1-2386.094,47.832Zm8.711-.02A17.4,17.4,0,0,0-2360,65.2a17.4,17.4,0,0,0,17.383-17.383A17.4,17.4,0,0,0-2360,30.43,17.4,17.4,0,0,0-2377.382,47.813Z" transform="translate(2735 421)"/>
  </g>
</svg>
