<svg xmlns="http://www.w3.org/2000/svg" width="32" height="32" viewBox="0 0 32 32">
  <defs>
    <style>
      .cls-1, .cls-2 {
        fill: #37444a;
      }

      .cls-2 {
        opacity: 0.3;
      }
    </style>
  </defs>
  <g id="组_41" data-name="组 41" transform="translate(-161.938 -98.175)">
    <path id="路径_20" data-name="路径 20" class="cls-1" d="M183.152,130.175h-17.1c-2.268,0-4.114-1.561-4.114-3.48V101.655c0-1.919,1.845-3.48,4.114-3.48h23.773c2.268,0,4.114,1.561,4.114,3.48v19.463a2.171,2.171,0,0,1-.813,1.648l-8.044,6.738A3,3,0,0,1,183.152,130.175Zm0-2.32v0Zm-17.1-27.36a1.28,1.28,0,0,0-1.371,1.16V126.7a1.28,1.28,0,0,0,1.371,1.16h17.1l8.044-6.738V101.655a1.28,1.28,0,0,0-1.371-1.16Z" transform="translate(0)"/>
    <path id="路径_21" data-name="路径 21" d="M568.964,638a.914.914,0,0,1-.914-.914V632.82a.914.914,0,0,1,1.829,0v4.267A.914.914,0,0,1,568.964,638Z" transform="translate(-384.735 -512.465)"/>
    <path id="路径_22" data-name="路径 22" class="cls-1" d="M568.05,632.82a.914.914,0,0,1,.914-.914h4.267a.914.914,0,0,1,0,1.829h-4.267A.914.914,0,0,1,568.05,632.82Z" transform="translate(-384.735 -512.465)"/>
    <path id="路径_23" data-name="路径 23" class="cls-2" d="M292.554,428.3h15.385a2.247,2.247,0,0,1,2.308,2.182v11.636a2.247,2.247,0,0,1-2.308,2.182H292.554a2.247,2.247,0,0,1-2.308-2.182V430.485A2.247,2.247,0,0,1,292.554,428.3Z" transform="translate(-122.934 -325.877)"/>
  </g>
</svg>
