<svg xmlns="http://www.w3.org/2000/svg" width="43.859" height="45.931" viewBox="0 0 43.859 45.931">
  <defs>
    <style>
      .cls-1 {
        fill: #37444a;
      }
    </style>
  </defs>
  <g id="组_156" data-name="组 156" transform="translate(-63.945 -42.667)">
    <path id="路径_56" data-name="路径 56" class="cls-1" d="M248.237,69.808a13.57,13.57,0,1,1,13.57-13.57A13.57,13.57,0,0,1,248.237,69.808Zm0-22.965a9.395,9.395,0,1,0,9.395,9.395A9.395,9.395,0,0,0,248.237,46.842Z" transform="translate(-162.368)"/>
    <path id="路径_57" data-name="路径 57" class="cls-1" d="M399.675,359.083a7.307,7.307,0,0,1-5.167-2.088,2.089,2.089,0,1,1,2.954-2.954,3.215,3.215,0,0,0,4.426,0A2.107,2.107,0,1,1,404.895,357a7.307,7.307,0,0,1-5.219,2.088Z" transform="translate(-313.806 -295.538)"/>
    <path id="路径_58" data-name="路径 58" class="cls-1" d="M101.528,534.961H70.211a6.263,6.263,0,0,1-6.117-7.62A19.468,19.468,0,0,1,83.208,512h5.324a19.468,19.468,0,0,1,19.124,15.345,6.263,6.263,0,0,1-6.128,7.62Zm-18.32-18.79a15.345,15.345,0,0,0-15.084,12.078,2.088,2.088,0,0,0,2.088,2.537h31.316a2.088,2.088,0,0,0,2.088-2.537,15.345,15.345,0,0,0-15.084-12.078Z" transform="translate(0 -446.363)"/>
  </g>
</svg>
