<svg xmlns="http://www.w3.org/2000/svg" width="32" height="32" viewBox="0 0 32 32">
  <defs>
    <style>
      .cls-1, .cls-2 {
        fill: #37444a;
      }

      .cls-1 {
        opacity: 0.3;
      }
    </style>
  </defs>
  <g id="组_44" data-name="组 44" transform="translate(-28.781 -521.887)">
    <path id="路径_26" data-name="路径 26" class="cls-1" d="M292.554,428.3h15.385a2.247,2.247,0,0,1,2.308,2.182v11.636a2.247,2.247,0,0,1-2.308,2.182H292.554a2.247,2.247,0,0,1-2.308-2.182V430.485A2.247,2.247,0,0,1,292.554,428.3Z" transform="translate(-255.479 102.161)"/>
    <g id="组_43" data-name="组 43" transform="translate(-54.519 457.387)">
      <path id="路径_24" data-name="路径 24" class="cls-2" d="M107.571,64.5H91.029A7.58,7.58,0,0,0,83.3,71.9V89.1a7.58,7.58,0,0,0,7.729,7.4h16.541a7.58,7.58,0,0,0,7.729-7.4V71.9A7.58,7.58,0,0,0,107.571,64.5Zm5.251,24.593a5.149,5.149,0,0,1-5.251,5.03H91.029a5.149,5.149,0,0,1-5.251-5.03V71.9a5.149,5.149,0,0,1,5.251-5.03h16.541a5.149,5.149,0,0,1,5.251,5.03Z"/>
      <path id="路径_25" data-name="路径 25" class="cls-2" d="M408.678,351.767l-6.986-4.432a2.078,2.078,0,0,0-3.193,1.752v8.868a2.076,2.076,0,0,0,1.077,1.819,2.081,2.081,0,0,0,2.115-.067l6.989-4.432a2.077,2.077,0,0,0,0-3.509ZM400.6,357.92v-8.793l6.93,4.4Zm6.958-4.377h0l.56-.888Z" transform="translate(-303.768 -273.025)"/>
    </g>
  </g>
</svg>
